<svg width="33" height="33" viewBox="0 0 33 33" fill="none" xmlns="http://www.w3.org/2000/svg">
<rect x="1.27344" y="0.813721" width="31" height="31" rx="15.5" fill="#23272C"/>
<rect x="1.27344" y="0.813721" width="31" height="31" rx="15.5" stroke="#41464B"/>
<g clip-path="url(#clip0_5_1372)">
<mask id="path-2-inside-1_5_1372" fill="white">
<path d="M25.1067 11.3136C25.1067 10.397 24.3567 9.64697 23.4401 9.64697H10.1067C9.19006 9.64697 8.44006 10.397 8.44006 11.3136V21.3136C8.44006 22.2303 9.19006 22.9803 10.1067 22.9803H23.4401C24.3567 22.9803 25.1067 22.2303 25.1067 21.3136V11.3136ZM23.4401 11.3136L16.7734 15.4803L10.1067 11.3136H23.4401ZM23.4401 21.3136H10.1067V12.9803L16.7734 17.147L23.4401 12.9803V21.3136Z"/>
</mask>
<path d="M23.4401 11.3136L24.5001 13.0096L30.4137 9.31364H23.4401V11.3136ZM16.7734 15.4803L15.7134 17.1763L16.7734 17.8388L17.8334 17.1763L16.7734 15.4803ZM10.1067 11.3136V9.31364H3.13314L9.04673 13.0096L10.1067 11.3136ZM23.4401 21.3136V23.3136H25.4401V21.3136H23.4401ZM10.1067 21.3136H8.10673V23.3136H10.1067V21.3136ZM10.1067 12.9803L11.1667 11.2843L8.10673 9.37181V12.9803H10.1067ZM16.7734 17.147L15.7134 18.843L16.7734 19.5055L17.8334 18.843L16.7734 17.147ZM23.4401 12.9803H25.4401V9.37181L22.3801 11.2843L23.4401 12.9803ZM27.1067 11.3136C27.1067 9.2924 25.4613 7.64697 23.4401 7.64697V11.647C23.2522 11.647 23.1067 11.5015 23.1067 11.3136H27.1067ZM23.4401 7.64697H10.1067V11.647H23.4401V7.64697ZM10.1067 7.64697C8.08549 7.64697 6.44006 9.2924 6.44006 11.3136H10.4401C10.4401 11.5015 10.2946 11.647 10.1067 11.647V7.64697ZM6.44006 11.3136V21.3136H10.4401V11.3136H6.44006ZM6.44006 21.3136C6.44006 23.3349 8.08549 24.9803 10.1067 24.9803V20.9803C10.2946 20.9803 10.4401 21.1257 10.4401 21.3136H6.44006ZM10.1067 24.9803H23.4401V20.9803H10.1067V24.9803ZM23.4401 24.9803C25.4613 24.9803 27.1067 23.3349 27.1067 21.3136H23.1067C23.1067 21.1257 23.2522 20.9803 23.4401 20.9803V24.9803ZM27.1067 21.3136V11.3136H23.1067V21.3136H27.1067ZM22.3801 9.61764L15.7134 13.7843L17.8334 17.1763L24.5001 13.0096L22.3801 9.61764ZM17.8334 13.7843L11.1667 9.61764L9.04673 13.0096L15.7134 17.1763L17.8334 13.7843ZM10.1067 13.3136H23.4401V9.31364H10.1067V13.3136ZM23.4401 19.3136H10.1067V23.3136H23.4401V19.3136ZM12.1067 21.3136V12.9803H8.10673V21.3136H12.1067ZM9.04673 14.6763L15.7134 18.843L17.8334 15.451L11.1667 11.2843L9.04673 14.6763ZM17.8334 18.843L24.5001 14.6763L22.3801 11.2843L15.7134 15.451L17.8334 18.843ZM21.4401 12.9803V21.3136H25.4401V12.9803H21.4401Z" fill="#BFBFBF" mask="url(#path-2-inside-1_5_1372)"/>
</g>
<defs>
<clipPath id="clip0_5_1372">
<rect width="20" height="20" fill="white" transform="translate(6.77344 6.31372)"/>
</clipPath>
</defs>
</svg>
