<svg width="16" height="17" viewBox="0 0 16 17" fill="none" xmlns="http://www.w3.org/2000/svg">
<g clip-path="url(#clip0_1_13174)">
<path d="M3.99984 7.16675C3.2665 7.16675 2.6665 7.76675 2.6665 8.50008C2.6665 9.23341 3.2665 9.83341 3.99984 9.83341C4.73317 9.83341 5.33317 9.23341 5.33317 8.50008C5.33317 7.76675 4.73317 7.16675 3.99984 7.16675ZM11.9998 7.16675C11.2665 7.16675 10.6665 7.76675 10.6665 8.50008C10.6665 9.23341 11.2665 9.83341 11.9998 9.83341C12.7332 9.83341 13.3332 9.23341 13.3332 8.50008C13.3332 7.76675 12.7332 7.16675 11.9998 7.16675ZM7.99984 7.16675C7.2665 7.16675 6.6665 7.76675 6.6665 8.50008C6.6665 9.23341 7.2665 9.83341 7.99984 9.83341C8.73317 9.83341 9.33317 9.23341 9.33317 8.50008C9.33317 7.76675 8.73317 7.16675 7.99984 7.16675Z" fill="#D9D9D9"/>
</g>
<defs>
<clipPath id="clip0_1_13174">
<rect width="16" height="16" fill="white" transform="translate(0 0.5)"/>
</clipPath>
</defs>
</svg>
